<?xml version="1.0" encoding="UTF-8"?>
<svg xmlns="http://www.w3.org/2000/svg" xmlns:xlink="http://www.w3.org/1999/xlink" width="500pt" height="72pt" viewBox="0 0 500 72" version="1.1">
<defs>
<g>
<symbol overflow="visible" id="glyph0-0">
<path style="stroke:none;" d=""/>
</symbol>
<symbol overflow="visible" id="glyph0-1">
<path style="stroke:none;" d="M 2.9375 -6.375 C 2.9375 -6.625 2.9375 -6.640625 2.703125 -6.640625 C 2.078125 -6 1.203125 -6 0.890625 -6 L 0.890625 -5.6875 C 1.09375 -5.6875 1.671875 -5.6875 2.1875 -5.953125 L 2.1875 -0.78125 C 2.1875 -0.421875 2.15625 -0.3125 1.265625 -0.3125 L 0.953125 -0.3125 L 0.953125 0 C 1.296875 -0.03125 2.15625 -0.03125 2.5625 -0.03125 C 2.953125 -0.03125 3.828125 -0.03125 4.171875 0 L 4.171875 -0.3125 L 3.859375 -0.3125 C 2.953125 -0.3125 2.9375 -0.421875 2.9375 -0.78125 Z M 2.9375 -6.375 "/>
</symbol>
<symbol overflow="visible" id="glyph0-2">
<path style="stroke:none;" d="M 6.171875 -3.34375 C 6.34375 -3.84375 6.65625 -3.984375 7.015625 -3.984375 L 7.015625 -4.296875 C 6.78125 -4.28125 6.5 -4.265625 6.28125 -4.265625 C 5.984375 -4.265625 5.546875 -4.28125 5.359375 -4.296875 L 5.359375 -3.984375 C 5.71875 -3.984375 5.9375 -3.796875 5.9375 -3.515625 C 5.9375 -3.453125 5.9375 -3.421875 5.875 -3.296875 L 4.96875 -0.75 L 3.984375 -3.53125 C 3.953125 -3.65625 3.9375 -3.671875 3.9375 -3.71875 C 3.9375 -3.984375 4.328125 -3.984375 4.53125 -3.984375 L 4.53125 -4.296875 C 4.234375 -4.28125 3.734375 -4.265625 3.484375 -4.265625 C 3.1875 -4.265625 2.90625 -4.28125 2.609375 -4.296875 L 2.609375 -3.984375 C 2.96875 -3.984375 3.125 -3.96875 3.234375 -3.84375 C 3.28125 -3.78125 3.390625 -3.484375 3.453125 -3.296875 L 2.609375 -0.875 L 1.65625 -3.53125 C 1.609375 -3.65625 1.609375 -3.671875 1.609375 -3.71875 C 1.609375 -3.984375 2 -3.984375 2.1875 -3.984375 L 2.1875 -4.296875 C 1.890625 -4.28125 1.328125 -4.265625 1.109375 -4.265625 C 1.0625 -4.265625 0.53125 -4.28125 0.171875 -4.296875 L 0.171875 -3.984375 C 0.671875 -3.984375 0.796875 -3.953125 0.921875 -3.640625 L 2.171875 -0.109375 C 2.21875 0.03125 2.25 0.109375 2.375 0.109375 C 2.515625 0.109375 2.53125 0.046875 2.578125 -0.09375 L 3.59375 -2.90625 L 4.609375 -0.078125 C 4.640625 0.03125 4.671875 0.109375 4.8125 0.109375 C 4.9375 0.109375 4.96875 0.015625 5 -0.078125 Z M 6.171875 -3.34375 "/>
</symbol>
<symbol overflow="visible" id="glyph0-3">
<path style="stroke:none;" d="M 1.671875 -3.3125 L 1.671875 -4.40625 L 0.28125 -4.296875 L 0.28125 -3.984375 C 0.984375 -3.984375 1.0625 -3.921875 1.0625 -3.421875 L 1.0625 -0.75 C 1.0625 -0.3125 0.953125 -0.3125 0.28125 -0.3125 L 0.28125 0 C 0.671875 -0.015625 1.140625 -0.03125 1.421875 -0.03125 C 1.8125 -0.03125 2.28125 -0.03125 2.6875 0 L 2.6875 -0.3125 L 2.46875 -0.3125 C 1.734375 -0.3125 1.71875 -0.421875 1.71875 -0.78125 L 1.71875 -2.3125 C 1.71875 -3.296875 2.140625 -4.1875 2.890625 -4.1875 C 2.953125 -4.1875 2.984375 -4.1875 3 -4.171875 C 2.96875 -4.171875 2.765625 -4.046875 2.765625 -3.78125 C 2.765625 -3.515625 2.984375 -3.359375 3.203125 -3.359375 C 3.375 -3.359375 3.625 -3.484375 3.625 -3.796875 C 3.625 -4.109375 3.3125 -4.40625 2.890625 -4.40625 C 2.15625 -4.40625 1.796875 -3.734375 1.671875 -3.3125 Z M 1.671875 -3.3125 "/>
</symbol>
<symbol overflow="visible" id="glyph0-4">
<path style="stroke:none;" d="M 1.765625 -4.40625 L 0.375 -4.296875 L 0.375 -3.984375 C 1.015625 -3.984375 1.109375 -3.921875 1.109375 -3.4375 L 1.109375 -0.75 C 1.109375 -0.3125 1 -0.3125 0.328125 -0.3125 L 0.328125 0 C 0.640625 -0.015625 1.1875 -0.03125 1.421875 -0.03125 C 1.78125 -0.03125 2.125 -0.015625 2.46875 0 L 2.46875 -0.3125 C 1.796875 -0.3125 1.765625 -0.359375 1.765625 -0.75 Z M 1.796875 -6.140625 C 1.796875 -6.453125 1.5625 -6.671875 1.28125 -6.671875 C 0.96875 -6.671875 0.75 -6.40625 0.75 -6.140625 C 0.75 -5.875 0.96875 -5.609375 1.28125 -5.609375 C 1.5625 -5.609375 1.796875 -5.828125 1.796875 -6.140625 Z M 1.796875 -6.140625 "/>
</symbol>
<symbol overflow="visible" id="glyph0-5">
<path style="stroke:none;" d="M 1.71875 -3.984375 L 3.15625 -3.984375 L 3.15625 -4.296875 L 1.71875 -4.296875 L 1.71875 -6.125 L 1.46875 -6.125 C 1.46875 -5.3125 1.171875 -4.25 0.1875 -4.203125 L 0.1875 -3.984375 L 1.03125 -3.984375 L 1.03125 -1.234375 C 1.03125 -0.015625 1.96875 0.109375 2.328125 0.109375 C 3.03125 0.109375 3.3125 -0.59375 3.3125 -1.234375 L 3.3125 -1.796875 L 3.0625 -1.796875 L 3.0625 -1.25 C 3.0625 -0.515625 2.765625 -0.140625 2.390625 -0.140625 C 1.71875 -0.140625 1.71875 -1.046875 1.71875 -1.21875 Z M 1.71875 -3.984375 "/>
</symbol>
<symbol overflow="visible" id="glyph0-6">
<path style="stroke:none;" d="M 1.109375 -2.515625 C 1.171875 -4 2.015625 -4.25 2.359375 -4.25 C 3.375 -4.25 3.484375 -2.90625 3.484375 -2.515625 Z M 1.109375 -2.296875 L 3.890625 -2.296875 C 4.109375 -2.296875 4.140625 -2.296875 4.140625 -2.515625 C 4.140625 -3.5 3.59375 -4.46875 2.359375 -4.46875 C 1.203125 -4.46875 0.28125 -3.4375 0.28125 -2.1875 C 0.28125 -0.859375 1.328125 0.109375 2.46875 0.109375 C 3.6875 0.109375 4.140625 -1 4.140625 -1.1875 C 4.140625 -1.28125 4.0625 -1.3125 4 -1.3125 C 3.921875 -1.3125 3.890625 -1.25 3.875 -1.171875 C 3.53125 -0.140625 2.625 -0.140625 2.53125 -0.140625 C 2.03125 -0.140625 1.640625 -0.4375 1.40625 -0.8125 C 1.109375 -1.28125 1.109375 -1.9375 1.109375 -2.296875 Z M 1.109375 -2.296875 "/>
</symbol>
<symbol overflow="visible" id="glyph1-0">
<path style="stroke:none;" d=""/>
</symbol>
<symbol overflow="visible" id="glyph1-1">
<path style="stroke:none;" d="M 1.65625 -2.4375 L 2.90625 -2.4375 C 4.0625 -2.4375 4.78125 -3.34375 4.78125 -4.265625 C 4.78125 -5.1875 4.046875 -6.09375 2.90625 -6.09375 L 0.671875 -6.09375 C 0.515625 -6.09375 0.265625 -6.09375 0.265625 -5.796875 C 0.265625 -5.484375 0.515625 -5.484375 0.671875 -5.484375 L 0.96875 -5.484375 L 0.96875 -0.609375 L 0.671875 -0.609375 C 0.515625 -0.609375 0.265625 -0.609375 0.265625 -0.296875 C 0.265625 0 0.515625 0 0.671875 0 L 1.953125 0 C 2.109375 0 2.359375 0 2.359375 -0.296875 C 2.359375 -0.609375 2.109375 -0.609375 1.953125 -0.609375 L 1.65625 -0.609375 Z M 1.65625 -5.484375 L 2.71875 -5.484375 C 3.671875 -5.484375 4.09375 -4.796875 4.09375 -4.265625 C 4.09375 -3.734375 3.671875 -3.046875 2.71875 -3.046875 L 1.65625 -3.046875 Z M 1.65625 -5.484375 "/>
</symbol>
<symbol overflow="visible" id="glyph1-2">
<path style="stroke:none;" d="M 0.96875 -0.609375 L 0.671875 -0.609375 C 0.515625 -0.609375 0.265625 -0.609375 0.265625 -0.296875 C 0.265625 0 0.515625 0 0.671875 0 L 4.609375 0 C 4.9375 0 5 -0.09375 5 -0.40625 L 5 -1.296875 C 5 -1.484375 5 -1.703125 4.671875 -1.703125 C 4.3125 -1.703125 4.3125 -1.5 4.3125 -1.296875 L 4.3125 -0.609375 L 1.65625 -0.609375 L 1.65625 -2.84375 L 2.953125 -2.84375 C 2.953125 -2.4375 2.953125 -2.28125 3.3125 -2.28125 C 3.65625 -2.28125 3.65625 -2.5 3.65625 -2.6875 L 3.65625 -3.625 C 3.65625 -3.8125 3.65625 -4.03125 3.3125 -4.03125 C 2.953125 -4.03125 2.953125 -3.875 2.953125 -3.453125 L 1.65625 -3.453125 L 1.65625 -5.484375 L 4.09375 -5.484375 L 4.09375 -4.953125 C 4.09375 -4.765625 4.09375 -4.546875 4.4375 -4.546875 C 4.78125 -4.546875 4.78125 -4.75 4.78125 -4.953125 L 4.78125 -5.6875 C 4.78125 -5.984375 4.71875 -6.09375 4.390625 -6.09375 L 0.671875 -6.09375 C 0.515625 -6.09375 0.265625 -6.09375 0.265625 -5.796875 C 0.265625 -5.484375 0.515625 -5.484375 0.671875 -5.484375 L 0.96875 -5.484375 Z M 0.96875 -0.609375 "/>
</symbol>
<symbol overflow="visible" id="glyph1-3">
<path style="stroke:none;" d="M 2.953125 -2.734375 C 3.234375 -2.671875 4.0625 -2.46875 4.0625 -1.609375 C 4.0625 -1.09375 3.625 -0.5 2.84375 -0.5 C 2.5625 -0.5 2.078125 -0.53125 1.671875 -0.8125 C 1.25 -1.078125 1.21875 -1.5 1.203125 -1.671875 C 1.203125 -1.84375 1.1875 -2.03125 0.875 -2.03125 C 0.515625 -2.03125 0.515625 -1.8125 0.515625 -1.609375 L 0.515625 -0.296875 C 0.515625 -0.140625 0.515625 0.109375 0.8125 0.109375 C 1.03125 0.109375 1.09375 -0.03125 1.1875 -0.34375 C 1.578125 -0.046875 2.1875 0.109375 2.828125 0.109375 C 3.984375 0.109375 4.703125 -0.765625 4.703125 -1.65625 C 4.703125 -2.296875 4.34375 -2.71875 4.234375 -2.84375 C 3.8125 -3.234375 3.546875 -3.3125 2.765625 -3.484375 L 1.96875 -3.671875 C 1.546875 -3.78125 1.171875 -4.140625 1.171875 -4.609375 C 1.171875 -5.109375 1.65625 -5.59375 2.359375 -5.59375 C 3.53125 -5.59375 3.6875 -4.65625 3.75 -4.34375 C 3.78125 -4.125 3.890625 -4.0625 4.09375 -4.0625 C 4.4375 -4.0625 4.4375 -4.28125 4.4375 -4.46875 L 4.4375 -5.796875 C 4.4375 -5.953125 4.4375 -6.203125 4.140625 -6.203125 C 3.890625 -6.203125 3.84375 -6.03125 3.765625 -5.734375 C 3.359375 -6.078125 2.828125 -6.203125 2.375 -6.203125 C 1.265625 -6.203125 0.515625 -5.40625 0.515625 -4.5625 C 0.515625 -3.890625 0.984375 -3.234375 1.796875 -3 C 1.84375 -2.984375 2.8125 -2.765625 2.953125 -2.734375 Z M 2.953125 -2.734375 "/>
</symbol>
<symbol overflow="visible" id="glyph1-4">
<path style="stroke:none;" d="M 2.953125 -5.484375 L 4.03125 -5.484375 C 4.1875 -5.484375 4.453125 -5.484375 4.453125 -5.78125 C 4.453125 -6.09375 4.1875 -6.09375 4.03125 -6.09375 L 1.203125 -6.09375 C 1.046875 -6.09375 0.78125 -6.09375 0.78125 -5.796875 C 0.78125 -5.484375 1.046875 -5.484375 1.203125 -5.484375 L 2.265625 -5.484375 L 2.265625 -0.609375 L 1.203125 -0.609375 C 1.046875 -0.609375 0.78125 -0.609375 0.78125 -0.3125 C 0.78125 0 1.046875 0 1.203125 0 L 4.03125 0 C 4.1875 0 4.453125 0 4.453125 -0.296875 C 4.453125 -0.609375 4.1875 -0.609375 4.03125 -0.609375 L 2.953125 -0.609375 Z M 2.953125 -5.484375 "/>
</symbol>
<symbol overflow="visible" id="glyph1-5">
<path style="stroke:none;" d="M 2.890625 -3.671875 C 2.765625 -3.3125 2.6875 -3.03125 2.625 -2.734375 L 2.609375 -2.734375 C 2.515625 -3.203125 1.640625 -5.796875 1.609375 -5.859375 C 1.515625 -6.09375 1.265625 -6.09375 1.125 -6.09375 L 0.5625 -6.09375 C 0.421875 -6.09375 0.171875 -6.09375 0.171875 -5.796875 C 0.171875 -5.484375 0.375 -5.484375 0.703125 -5.484375 L 0.703125 -0.609375 C 0.375 -0.609375 0.171875 -0.609375 0.171875 -0.296875 C 0.171875 0 0.421875 0 0.5625 0 L 1.390625 0 C 1.53125 0 1.78125 0 1.78125 -0.296875 C 1.78125 -0.609375 1.578125 -0.609375 1.25 -0.609375 L 1.25 -5.359375 L 1.265625 -5.359375 C 1.375 -4.90625 2.015625 -2.984375 2.046875 -2.859375 C 2.140625 -2.625 2.265625 -2.25 2.3125 -2.1875 C 2.375 -2.109375 2.5 -2.03125 2.609375 -2.03125 C 2.734375 -2.03125 2.875 -2.109375 2.953125 -2.25 C 2.984375 -2.3125 3.84375 -4.828125 3.953125 -5.359375 L 3.96875 -5.359375 L 3.96875 -0.609375 C 3.65625 -0.609375 3.4375 -0.609375 3.4375 -0.296875 C 3.4375 0 3.6875 0 3.84375 0 L 4.65625 0 C 4.8125 0 5.046875 0 5.046875 -0.296875 C 5.046875 -0.609375 4.84375 -0.609375 4.53125 -0.609375 L 4.53125 -5.484375 C 4.84375 -5.484375 5.046875 -5.484375 5.046875 -5.796875 C 5.046875 -6.09375 4.8125 -6.09375 4.65625 -6.09375 L 4.09375 -6.09375 C 3.6875 -6.09375 3.65625 -5.953125 3.5625 -5.6875 Z M 2.890625 -3.671875 "/>
</symbol>
<symbol overflow="visible" id="glyph1-6">
<path style="stroke:none;" d="M 2.953125 -5.484375 L 4.28125 -5.484375 L 4.28125 -4.953125 C 4.28125 -4.765625 4.28125 -4.546875 4.609375 -4.546875 C 4.96875 -4.546875 4.96875 -4.75 4.96875 -4.953125 L 4.96875 -5.6875 C 4.96875 -5.984375 4.90625 -6.09375 4.5625 -6.09375 L 0.671875 -6.09375 C 0.34375 -6.09375 0.265625 -6.015625 0.265625 -5.6875 L 0.265625 -4.953125 C 0.265625 -4.765625 0.265625 -4.546875 0.59375 -4.546875 C 0.953125 -4.546875 0.953125 -4.75 0.953125 -4.953125 L 0.953125 -5.484375 L 2.265625 -5.484375 L 2.265625 -0.609375 L 1.75 -0.609375 C 1.609375 -0.609375 1.359375 -0.609375 1.359375 -0.3125 C 1.359375 0 1.59375 0 1.75 0 L 3.484375 0 C 3.625 0 3.875 0 3.875 -0.296875 C 3.875 -0.609375 3.640625 -0.609375 3.484375 -0.609375 L 2.953125 -0.609375 Z M 2.953125 -5.484375 "/>
</symbol>
<symbol overflow="visible" id="glyph1-7">
<path style="stroke:none;" d="M 4.828125 -5.796875 C 4.828125 -5.953125 4.828125 -6.203125 4.53125 -6.203125 C 4.34375 -6.203125 4.296875 -6.09375 4.25 -6.03125 C 4.234375 -5.984375 4.234375 -5.96875 4.09375 -5.71875 C 3.765625 -6 3.3125 -6.203125 2.796875 -6.203125 C 1.515625 -6.203125 0.40625 -4.859375 0.40625 -3.046875 C 0.40625 -1.21875 1.515625 0.109375 2.8125 0.109375 C 3.96875 0.109375 4.828125 -0.78125 4.828125 -1.671875 C 4.828125 -2 4.578125 -2 4.46875 -2 C 4.390625 -2 4.15625 -2 4.140625 -1.71875 C 4.0625 -0.734375 3.265625 -0.5 2.84375 -0.5 C 1.9375 -0.5 1.09375 -1.5625 1.09375 -3.046875 C 1.09375 -4.53125 1.953125 -5.59375 2.84375 -5.59375 C 3.4375 -5.59375 3.984375 -5.140625 4.125 -4.328125 C 4.15625 -4.15625 4.171875 -4 4.46875 -4 C 4.828125 -4 4.828125 -4.203125 4.828125 -4.40625 Z M 4.828125 -5.796875 "/>
</symbol>
<symbol overflow="visible" id="glyph2-0">
<path style="stroke:none;" d=""/>
</symbol>
<symbol overflow="visible" id="glyph2-1">
<path style="stroke:none;" d="M 4.734375 -5.484375 C 4.84375 -5.484375 5.109375 -5.484375 5.109375 -5.78125 C 5.109375 -6.09375 4.859375 -6.09375 4.703125 -6.09375 L 3.921875 -6.09375 C 3.765625 -6.09375 3.515625 -6.09375 3.515625 -5.78125 C 3.515625 -5.484375 3.765625 -5.484375 3.921875 -5.484375 L 4.171875 -5.484375 L 3.734375 -2.15625 C 3.65625 -1.5625 3.578125 -1.03125 3.5625 -0.75 C 3.5 -1.390625 3.03125 -3.375 3.015625 -3.421875 C 2.9375 -3.65625 2.703125 -3.65625 2.609375 -3.65625 C 2.515625 -3.65625 2.3125 -3.65625 2.21875 -3.4375 C 2.1875 -3.375 1.71875 -1.375 1.671875 -0.75 L 1.65625 -0.75 C 1.65625 -0.8125 1.640625 -1 1.578125 -1.53125 L 1.0625 -5.484375 L 1.3125 -5.484375 C 1.453125 -5.484375 1.703125 -5.484375 1.703125 -5.78125 C 1.703125 -6.09375 1.46875 -6.09375 1.3125 -6.09375 L 0.515625 -6.09375 C 0.375 -6.09375 0.109375 -6.09375 0.109375 -5.78125 C 0.109375 -5.484375 0.390625 -5.484375 0.484375 -5.484375 L 1.203125 -0.265625 C 1.25 0.078125 1.5 0.078125 1.609375 0.078125 C 1.703125 0.078125 1.90625 0.078125 2 -0.125 C 2.03125 -0.1875 2.578125 -2.515625 2.609375 -2.921875 L 2.625 -2.921875 C 2.65625 -2.46875 3.203125 -0.1875 3.203125 -0.171875 C 3.28125 0.078125 3.53125 0.078125 3.609375 0.078125 C 3.734375 0.078125 3.96875 0.078125 4.015625 -0.265625 Z M 4.734375 -5.484375 "/>
</symbol>
<symbol overflow="visible" id="glyph2-2">
<path style="stroke:none;" d="M 1.5625 -5.484375 L 2.265625 -5.484375 C 3.1875 -5.484375 3.625 -4.890625 3.625 -4.421875 C 3.625 -3.921875 3.1875 -3.34375 2.265625 -3.34375 L 1.5625 -3.34375 Z M 3.46875 -3.03125 C 4.125 -3.40625 4.3125 -4 4.3125 -4.421875 C 4.3125 -5.28125 3.5625 -6.09375 2.375 -6.09375 L 0.625 -6.09375 C 0.453125 -6.09375 0.21875 -6.09375 0.21875 -5.78125 C 0.21875 -5.484375 0.46875 -5.484375 0.625 -5.484375 L 0.875 -5.484375 L 0.875 -0.609375 L 0.625 -0.609375 C 0.453125 -0.609375 0.21875 -0.609375 0.21875 -0.296875 C 0.21875 0 0.46875 0 0.625 0 L 1.796875 0 C 1.953125 0 2.203125 0 2.203125 -0.296875 C 2.203125 -0.609375 1.96875 -0.609375 1.796875 -0.609375 L 1.5625 -0.609375 L 1.5625 -2.734375 L 2.328125 -2.734375 C 2.515625 -2.734375 2.828125 -2.734375 3.140625 -2.46875 C 3.359375 -2.25 3.359375 -2.03125 3.359375 -1.609375 C 3.359375 -0.96875 3.359375 -0.671875 3.546875 -0.34375 C 3.71875 -0.046875 4 0.109375 4.34375 0.109375 C 4.96875 0.109375 5.203125 -0.546875 5.203125 -0.921875 C 5.203125 -1.25 4.96875 -1.25 4.859375 -1.25 C 4.75 -1.25 4.53125 -1.25 4.515625 -0.953125 C 4.515625 -0.875 4.5 -0.5 4.328125 -0.5 C 4.046875 -0.5 4.046875 -0.953125 4.046875 -1.484375 C 4.046875 -2.109375 4.046875 -2.1875 3.953125 -2.421875 C 3.84375 -2.71875 3.609375 -2.921875 3.46875 -3.03125 Z M 3.46875 -3.03125 "/>
</symbol>
<symbol overflow="visible" id="glyph2-3">
<path style="stroke:none;" d="M 2.953125 -5.484375 L 4.03125 -5.484375 C 4.1875 -5.484375 4.453125 -5.484375 4.453125 -5.78125 C 4.453125 -6.09375 4.1875 -6.09375 4.03125 -6.09375 L 1.203125 -6.09375 C 1.046875 -6.09375 0.78125 -6.09375 0.78125 -5.796875 C 0.78125 -5.484375 1.046875 -5.484375 1.203125 -5.484375 L 2.265625 -5.484375 L 2.265625 -0.609375 L 1.203125 -0.609375 C 1.046875 -0.609375 0.78125 -0.609375 0.78125 -0.3125 C 0.78125 0 1.046875 0 1.203125 0 L 4.03125 0 C 4.1875 0 4.453125 0 4.453125 -0.296875 C 4.453125 -0.609375 4.1875 -0.609375 4.03125 -0.609375 L 2.953125 -0.609375 Z M 2.953125 -5.484375 "/>
</symbol>
<symbol overflow="visible" id="glyph2-4">
<path style="stroke:none;" d="M 2.953125 -5.484375 L 4.28125 -5.484375 L 4.28125 -4.953125 C 4.28125 -4.765625 4.28125 -4.546875 4.609375 -4.546875 C 4.96875 -4.546875 4.96875 -4.75 4.96875 -4.953125 L 4.96875 -5.6875 C 4.96875 -5.984375 4.90625 -6.09375 4.5625 -6.09375 L 0.671875 -6.09375 C 0.34375 -6.09375 0.265625 -6.015625 0.265625 -5.6875 L 0.265625 -4.953125 C 0.265625 -4.765625 0.265625 -4.546875 0.59375 -4.546875 C 0.953125 -4.546875 0.953125 -4.75 0.953125 -4.953125 L 0.953125 -5.484375 L 2.265625 -5.484375 L 2.265625 -0.609375 L 1.75 -0.609375 C 1.609375 -0.609375 1.359375 -0.609375 1.359375 -0.3125 C 1.359375 0 1.59375 0 1.75 0 L 3.484375 0 C 3.625 0 3.875 0 3.875 -0.296875 C 3.875 -0.609375 3.640625 -0.609375 3.484375 -0.609375 L 2.953125 -0.609375 Z M 2.953125 -5.484375 "/>
</symbol>
<symbol overflow="visible" id="glyph2-5">
<path style="stroke:none;" d="M 0.96875 -0.609375 L 0.671875 -0.609375 C 0.515625 -0.609375 0.265625 -0.609375 0.265625 -0.296875 C 0.265625 0 0.515625 0 0.671875 0 L 4.609375 0 C 4.9375 0 5 -0.09375 5 -0.40625 L 5 -1.296875 C 5 -1.484375 5 -1.703125 4.671875 -1.703125 C 4.3125 -1.703125 4.3125 -1.5 4.3125 -1.296875 L 4.3125 -0.609375 L 1.65625 -0.609375 L 1.65625 -2.84375 L 2.953125 -2.84375 C 2.953125 -2.4375 2.953125 -2.28125 3.3125 -2.28125 C 3.65625 -2.28125 3.65625 -2.5 3.65625 -2.6875 L 3.65625 -3.625 C 3.65625 -3.8125 3.65625 -4.03125 3.3125 -4.03125 C 2.953125 -4.03125 2.953125 -3.875 2.953125 -3.453125 L 1.65625 -3.453125 L 1.65625 -5.484375 L 4.09375 -5.484375 L 4.09375 -4.953125 C 4.09375 -4.765625 4.09375 -4.546875 4.4375 -4.546875 C 4.78125 -4.546875 4.78125 -4.75 4.78125 -4.953125 L 4.78125 -5.6875 C 4.78125 -5.984375 4.71875 -6.09375 4.390625 -6.09375 L 0.671875 -6.09375 C 0.515625 -6.09375 0.265625 -6.09375 0.265625 -5.796875 C 0.265625 -5.484375 0.515625 -5.484375 0.671875 -5.484375 L 0.96875 -5.484375 Z M 0.96875 -0.609375 "/>
</symbol>
<symbol overflow="visible" id="glyph2-6">
<path style="stroke:none;" d="M 3.15625 -5.828125 C 3.0625 -6.203125 2.921875 -6.203125 2.609375 -6.203125 C 2.328125 -6.203125 2.15625 -6.203125 2.078125 -5.828125 L 0.875 -0.609375 C 0.734375 -0.609375 0.5 -0.609375 0.4375 -0.59375 C 0.328125 -0.53125 0.265625 -0.421875 0.265625 -0.296875 C 0.265625 0 0.53125 0 0.703125 0 L 1.71875 0 C 1.890625 0 2.140625 0 2.140625 -0.296875 C 2.140625 -0.609375 1.9375 -0.609375 1.578125 -0.609375 L 1.796875 -1.640625 L 3.421875 -1.640625 L 3.65625 -0.609375 C 3.296875 -0.609375 3.09375 -0.609375 3.09375 -0.296875 C 3.09375 0 3.328125 0 3.515625 0 L 4.53125 0 C 4.6875 0 4.953125 0 4.953125 -0.296875 C 4.953125 -0.421875 4.90625 -0.53125 4.78125 -0.578125 C 4.71875 -0.609375 4.5 -0.609375 4.359375 -0.609375 Z M 2.609375 -5.40625 L 2.625 -5.40625 L 3.265625 -2.25 L 1.953125 -2.25 Z M 2.609375 -5.40625 "/>
</symbol>
<symbol overflow="visible" id="glyph2-7">
<path style="stroke:none;" d="M 0.59375 -6.09375 C 0.4375 -6.09375 0.1875 -6.09375 0.1875 -5.78125 C 0.1875 -5.484375 0.453125 -5.484375 0.59375 -5.484375 L 0.8125 -5.484375 L 0.8125 -0.609375 L 0.59375 -0.609375 C 0.4375 -0.609375 0.1875 -0.609375 0.1875 -0.296875 C 0.1875 0 0.453125 0 0.59375 0 L 2.65625 0 C 3.953125 0 4.828125 -1.390625 4.828125 -3 C 4.828125 -4.59375 3.984375 -6.09375 2.65625 -6.09375 Z M 1.5 -0.609375 L 1.5 -5.484375 L 2.46875 -5.484375 C 3.59375 -5.484375 4.140625 -4.15625 4.140625 -3 C 4.140625 -1.828125 3.5625 -0.609375 2.46875 -0.609375 Z M 1.5 -0.609375 "/>
</symbol>
<symbol overflow="visible" id="glyph3-0">
<path style="stroke:none;" d=""/>
</symbol>
<symbol overflow="visible" id="glyph3-1">
<path style="stroke:none;" d="M 2.9375 -6.375 C 2.9375 -6.625 2.9375 -6.640625 2.703125 -6.640625 C 2.078125 -6 1.203125 -6 0.890625 -6 L 0.890625 -5.6875 C 1.09375 -5.6875 1.671875 -5.6875 2.1875 -5.953125 L 2.1875 -0.78125 C 2.1875 -0.421875 2.15625 -0.3125 1.265625 -0.3125 L 0.953125 -0.3125 L 0.953125 0 C 1.296875 -0.03125 2.15625 -0.03125 2.5625 -0.03125 C 2.953125 -0.03125 3.828125 -0.03125 4.171875 0 L 4.171875 -0.3125 L 3.859375 -0.3125 C 2.953125 -0.3125 2.9375 -0.421875 2.9375 -0.78125 Z M 2.9375 -6.375 "/>
</symbol>
<symbol overflow="visible" id="glyph3-2">
<path style="stroke:none;" d="M 1.671875 -3.3125 L 1.671875 -4.40625 L 0.28125 -4.296875 L 0.28125 -3.984375 C 0.984375 -3.984375 1.0625 -3.921875 1.0625 -3.421875 L 1.0625 -0.75 C 1.0625 -0.3125 0.953125 -0.3125 0.28125 -0.3125 L 0.28125 0 C 0.671875 -0.015625 1.140625 -0.03125 1.421875 -0.03125 C 1.8125 -0.03125 2.28125 -0.03125 2.6875 0 L 2.6875 -0.3125 L 2.46875 -0.3125 C 1.734375 -0.3125 1.71875 -0.421875 1.71875 -0.78125 L 1.71875 -2.3125 C 1.71875 -3.296875 2.140625 -4.1875 2.890625 -4.1875 C 2.953125 -4.1875 2.984375 -4.1875 3 -4.171875 C 2.96875 -4.171875 2.765625 -4.046875 2.765625 -3.78125 C 2.765625 -3.515625 2.984375 -3.359375 3.203125 -3.359375 C 3.375 -3.359375 3.625 -3.484375 3.625 -3.796875 C 3.625 -4.109375 3.3125 -4.40625 2.890625 -4.40625 C 2.15625 -4.40625 1.796875 -3.734375 1.671875 -3.3125 Z M 1.671875 -3.3125 "/>
</symbol>
<symbol overflow="visible" id="glyph3-3">
<path style="stroke:none;" d="M 1.109375 -2.515625 C 1.171875 -4 2.015625 -4.25 2.359375 -4.25 C 3.375 -4.25 3.484375 -2.90625 3.484375 -2.515625 Z M 1.109375 -2.296875 L 3.890625 -2.296875 C 4.109375 -2.296875 4.140625 -2.296875 4.140625 -2.515625 C 4.140625 -3.5 3.59375 -4.46875 2.359375 -4.46875 C 1.203125 -4.46875 0.28125 -3.4375 0.28125 -2.1875 C 0.28125 -0.859375 1.328125 0.109375 2.46875 0.109375 C 3.6875 0.109375 4.140625 -1 4.140625 -1.1875 C 4.140625 -1.28125 4.0625 -1.3125 4 -1.3125 C 3.921875 -1.3125 3.890625 -1.25 3.875 -1.171875 C 3.53125 -0.140625 2.625 -0.140625 2.53125 -0.140625 C 2.03125 -0.140625 1.640625 -0.4375 1.40625 -0.8125 C 1.109375 -1.28125 1.109375 -1.9375 1.109375 -2.296875 Z M 1.109375 -2.296875 "/>
</symbol>
<symbol overflow="visible" id="glyph3-4">
<path style="stroke:none;" d="M 3.3125 -0.75 C 3.359375 -0.359375 3.625 0.0625 4.09375 0.0625 C 4.3125 0.0625 4.921875 -0.078125 4.921875 -0.890625 L 4.921875 -1.453125 L 4.671875 -1.453125 L 4.671875 -0.890625 C 4.671875 -0.3125 4.421875 -0.25 4.3125 -0.25 C 3.984375 -0.25 3.9375 -0.703125 3.9375 -0.75 L 3.9375 -2.734375 C 3.9375 -3.15625 3.9375 -3.546875 3.578125 -3.921875 C 3.1875 -4.3125 2.6875 -4.46875 2.21875 -4.46875 C 1.390625 -4.46875 0.703125 -4 0.703125 -3.34375 C 0.703125 -3.046875 0.90625 -2.875 1.171875 -2.875 C 1.453125 -2.875 1.625 -3.078125 1.625 -3.328125 C 1.625 -3.453125 1.578125 -3.78125 1.109375 -3.78125 C 1.390625 -4.140625 1.875 -4.25 2.1875 -4.25 C 2.6875 -4.25 3.25 -3.859375 3.25 -2.96875 L 3.25 -2.609375 C 2.734375 -2.578125 2.046875 -2.546875 1.421875 -2.25 C 0.671875 -1.90625 0.421875 -1.390625 0.421875 -0.953125 C 0.421875 -0.140625 1.390625 0.109375 2.015625 0.109375 C 2.671875 0.109375 3.125 -0.296875 3.3125 -0.75 Z M 3.25 -2.390625 L 3.25 -1.390625 C 3.25 -0.453125 2.53125 -0.109375 2.078125 -0.109375 C 1.59375 -0.109375 1.1875 -0.453125 1.1875 -0.953125 C 1.1875 -1.5 1.609375 -2.328125 3.25 -2.390625 Z M 3.25 -2.390625 "/>
</symbol>
<symbol overflow="visible" id="glyph3-5">
<path style="stroke:none;" d="M 3.78125 -0.546875 L 3.78125 0.109375 L 5.25 0 L 5.25 -0.3125 C 4.5625 -0.3125 4.46875 -0.375 4.46875 -0.875 L 4.46875 -6.921875 L 3.046875 -6.8125 L 3.046875 -6.5 C 3.734375 -6.5 3.8125 -6.4375 3.8125 -5.9375 L 3.8125 -3.78125 C 3.53125 -4.140625 3.09375 -4.40625 2.5625 -4.40625 C 1.390625 -4.40625 0.34375 -3.421875 0.34375 -2.140625 C 0.34375 -0.875 1.3125 0.109375 2.453125 0.109375 C 3.09375 0.109375 3.53125 -0.234375 3.78125 -0.546875 Z M 3.78125 -3.21875 L 3.78125 -1.171875 C 3.78125 -1 3.78125 -0.984375 3.671875 -0.8125 C 3.375 -0.328125 2.9375 -0.109375 2.5 -0.109375 C 2.046875 -0.109375 1.6875 -0.375 1.453125 -0.75 C 1.203125 -1.15625 1.171875 -1.71875 1.171875 -2.140625 C 1.171875 -2.5 1.1875 -3.09375 1.46875 -3.546875 C 1.6875 -3.859375 2.0625 -4.1875 2.609375 -4.1875 C 2.953125 -4.1875 3.375 -4.03125 3.671875 -3.59375 C 3.78125 -3.421875 3.78125 -3.40625 3.78125 -3.21875 Z M 3.78125 -3.21875 "/>
</symbol>
<symbol overflow="visible" id="glyph3-6">
<path style="stroke:none;" d="M 1.265625 -0.765625 L 2.328125 -1.796875 C 3.875 -3.171875 4.46875 -3.703125 4.46875 -4.703125 C 4.46875 -5.84375 3.578125 -6.640625 2.359375 -6.640625 C 1.234375 -6.640625 0.5 -5.71875 0.5 -4.828125 C 0.5 -4.28125 1 -4.28125 1.03125 -4.28125 C 1.203125 -4.28125 1.546875 -4.390625 1.546875 -4.8125 C 1.546875 -5.0625 1.359375 -5.328125 1.015625 -5.328125 C 0.9375 -5.328125 0.921875 -5.328125 0.890625 -5.3125 C 1.109375 -5.96875 1.65625 -6.328125 2.234375 -6.328125 C 3.140625 -6.328125 3.5625 -5.515625 3.5625 -4.703125 C 3.5625 -3.90625 3.078125 -3.125 2.515625 -2.5 L 0.609375 -0.375 C 0.5 -0.265625 0.5 -0.234375 0.5 0 L 4.203125 0 L 4.46875 -1.734375 L 4.234375 -1.734375 C 4.171875 -1.4375 4.109375 -1 4 -0.84375 C 3.9375 -0.765625 3.28125 -0.765625 3.0625 -0.765625 Z M 1.265625 -0.765625 "/>
</symbol>
<symbol overflow="visible" id="glyph3-7">
<path style="stroke:none;" d="M 2.078125 -1.9375 C 2.296875 -1.890625 3.109375 -1.734375 3.109375 -1.015625 C 3.109375 -0.515625 2.765625 -0.109375 1.984375 -0.109375 C 1.140625 -0.109375 0.78125 -0.671875 0.59375 -1.53125 C 0.5625 -1.65625 0.5625 -1.6875 0.453125 -1.6875 C 0.328125 -1.6875 0.328125 -1.625 0.328125 -1.453125 L 0.328125 -0.125 C 0.328125 0.046875 0.328125 0.109375 0.4375 0.109375 C 0.484375 0.109375 0.5 0.09375 0.6875 -0.09375 C 0.703125 -0.109375 0.703125 -0.125 0.890625 -0.3125 C 1.328125 0.09375 1.78125 0.109375 1.984375 0.109375 C 3.125 0.109375 3.59375 -0.5625 3.59375 -1.28125 C 3.59375 -1.796875 3.296875 -2.109375 3.171875 -2.21875 C 2.84375 -2.546875 2.453125 -2.625 2.03125 -2.703125 C 1.46875 -2.8125 0.8125 -2.9375 0.8125 -3.515625 C 0.8125 -3.875 1.0625 -4.28125 1.921875 -4.28125 C 3.015625 -4.28125 3.078125 -3.375 3.09375 -3.078125 C 3.09375 -2.984375 3.1875 -2.984375 3.203125 -2.984375 C 3.34375 -2.984375 3.34375 -3.03125 3.34375 -3.21875 L 3.34375 -4.234375 C 3.34375 -4.390625 3.34375 -4.46875 3.234375 -4.46875 C 3.1875 -4.46875 3.15625 -4.46875 3.03125 -4.34375 C 3 -4.3125 2.90625 -4.21875 2.859375 -4.1875 C 2.484375 -4.46875 2.078125 -4.46875 1.921875 -4.46875 C 0.703125 -4.46875 0.328125 -3.796875 0.328125 -3.234375 C 0.328125 -2.890625 0.484375 -2.609375 0.75 -2.390625 C 1.078125 -2.140625 1.359375 -2.078125 2.078125 -1.9375 Z M 2.078125 -1.9375 "/>
</symbol>
</g>
</defs>
<g id="surface1">
<path style="fill:none;stroke-width:0.4;stroke-linecap:butt;stroke-linejoin:round;stroke:rgb(0%,0%,0%);stroke-opacity:1;stroke-miterlimit:10;" d="M 256 736 C 256 753.671875 241.671875 768 224 768 C 206.328125 768 192 753.671875 192 736 C 192 718.328125 206.328125 704 224 704 C 241.671875 704 256 718.328125 256 736 Z M 256 736 " transform="matrix(1,0,0,-1,-63,776)"/>
<path style="fill:none;stroke-width:0.4;stroke-linecap:butt;stroke-linejoin:round;stroke:rgb(0%,0%,0%);stroke-opacity:1;stroke-miterlimit:10;" d="M 128 736 C 128 753.671875 113.671875 768 96 768 C 78.328125 768 64 753.671875 64 736 C 64 718.328125 78.328125 704 96 704 C 113.671875 704 128 718.328125 128 736 Z M 128 736 " transform="matrix(1,0,0,-1,-63,776)"/>
<path style="fill:none;stroke-width:0.4;stroke-linecap:butt;stroke-linejoin:round;stroke:rgb(0%,0%,0%);stroke-opacity:1;stroke-miterlimit:10;" d="M 384 736 C 384 753.671875 369.671875 768 352 768 C 334.328125 768 320 753.671875 320 736 C 320 718.328125 334.328125 704 352 704 C 369.671875 704 384 718.328125 384 736 Z M 384 736 " transform="matrix(1,0,0,-1,-63,776)"/>
<path style="fill:none;stroke-width:0.4;stroke-linecap:butt;stroke-linejoin:round;stroke:rgb(0%,0%,0%);stroke-opacity:1;stroke-miterlimit:10;" d="M 512 736 C 512 753.671875 497.671875 768 480 768 C 462.328125 768 448 753.671875 448 736 C 448 718.328125 462.328125 704 480 704 C 497.671875 704 512 718.328125 512 736 Z M 512 736 " transform="matrix(1,0,0,-1,-63,776)"/>
<g style="fill:rgb(0%,0%,0%);fill-opacity:1;">
  <use xlink:href="#glyph0-1" x="15.8145" y="40"/>
  <use xlink:href="#glyph0-2" x="24.113346" y="40"/>
  <use xlink:href="#glyph0-3" x="31.306343" y="40"/>
  <use xlink:href="#glyph0-4" x="35.20172" y="40"/>
  <use xlink:href="#glyph0-5" x="37.96136" y="40"/>
  <use xlink:href="#glyph0-6" x="41.826849" y="40"/>
  <use xlink:href="#glyph0-3" x="46.250243" y="40"/>
</g>
<path style="fill:none;stroke-width:0.4;stroke-linecap:butt;stroke-linejoin:round;stroke:rgb(0%,0%,0%);stroke-opacity:1;stroke-dasharray:4;stroke-miterlimit:10;" d="M 192 752 C 170.667969 762.667969 149.332031 762.667969 128 752 " transform="matrix(1,0,0,-1,-63,776)"/>
<path style="fill-rule:evenodd;fill:rgb(0%,0%,0%);fill-opacity:1;stroke-width:0.4;stroke-linecap:butt;stroke-linejoin:round;stroke:rgb(0%,0%,0%);stroke-opacity:1;stroke-miterlimit:10;" d="M 128 752 L 135.304688 753.046875 L 133.21875 757.214844 Z M 128 752 " transform="matrix(1,0,0,-1,-63,776)"/>
<g style="fill:rgb(0%,0%,0%);fill-opacity:1;">
  <use xlink:href="#glyph1-1" x="53.2745" y="8"/>
  <use xlink:href="#glyph1-2" x="58.504865" y="8"/>
  <use xlink:href="#glyph1-3" x="63.73523" y="8"/>
  <use xlink:href="#glyph1-3" x="68.965595" y="8"/>
  <use xlink:href="#glyph1-4" x="74.19596" y="8"/>
  <use xlink:href="#glyph1-5" x="79.426325" y="8"/>
  <use xlink:href="#glyph1-4" x="84.65669" y="8"/>
  <use xlink:href="#glyph1-3" x="89.887055" y="8"/>
  <use xlink:href="#glyph1-6" x="95.11742" y="8"/>
  <use xlink:href="#glyph1-4" x="100.347785" y="8"/>
  <use xlink:href="#glyph1-7" x="105.57815" y="8"/>
</g>
<path style="fill:none;stroke-width:0.398;stroke-linecap:butt;stroke-linejoin:miter;stroke:rgb(0%,0%,0%);stroke-opacity:1;stroke-miterlimit:10;" d="M -0.00190625 0.00021875 L 3.138719 0.00021875 " transform="matrix(1,0,0,-1,111.4355,7.801)"/>
<g style="fill:rgb(0%,0%,0%);fill-opacity:1;">
  <use xlink:href="#glyph2-1" x="114.5745" y="8"/>
  <use xlink:href="#glyph2-2" x="119.804865" y="8"/>
  <use xlink:href="#glyph2-3" x="125.03523" y="8"/>
  <use xlink:href="#glyph2-4" x="130.265595" y="8"/>
  <use xlink:href="#glyph2-5" x="135.49596" y="8"/>
</g>
<g style="fill:rgb(0%,0%,0%);fill-opacity:1;">
  <use xlink:href="#glyph1-1" x="183.8895" y="8"/>
  <use xlink:href="#glyph1-2" x="189.119865" y="8"/>
  <use xlink:href="#glyph1-3" x="194.35023" y="8"/>
  <use xlink:href="#glyph1-3" x="199.580595" y="8"/>
  <use xlink:href="#glyph1-4" x="204.81096" y="8"/>
  <use xlink:href="#glyph1-5" x="210.041325" y="8"/>
  <use xlink:href="#glyph1-4" x="215.27169" y="8"/>
  <use xlink:href="#glyph1-3" x="220.502055" y="8"/>
  <use xlink:href="#glyph1-6" x="225.73242" y="8"/>
  <use xlink:href="#glyph1-4" x="230.962785" y="8"/>
  <use xlink:href="#glyph1-7" x="236.19315" y="8"/>
</g>
<path style="fill:none;stroke-width:0.398;stroke-linecap:butt;stroke-linejoin:miter;stroke:rgb(0%,0%,0%);stroke-opacity:1;stroke-miterlimit:10;" d="M 0.00028125 0.00021875 L 3.137 0.00021875 " transform="matrix(1,0,0,-1,242.0505,7.801)"/>
<g style="fill:rgb(0%,0%,0%);fill-opacity:1;">
  <use xlink:href="#glyph2-2" x="245.1895" y="8"/>
  <use xlink:href="#glyph2-5" x="250.419865" y="8"/>
  <use xlink:href="#glyph2-6" x="255.65023" y="8"/>
  <use xlink:href="#glyph2-7" x="260.880595" y="8"/>
</g>
<path style="fill:none;stroke-width:0.4;stroke-linecap:butt;stroke-linejoin:round;stroke:rgb(0%,0%,0%);stroke-opacity:1;stroke-dasharray:4;stroke-miterlimit:10;" d="M 256 752 C 277.332031 762.667969 298.667969 762.667969 320 752 " transform="matrix(1,0,0,-1,-63,776)"/>
<path style="fill-rule:evenodd;fill:rgb(0%,0%,0%);fill-opacity:1;stroke-width:0.4;stroke-linecap:butt;stroke-linejoin:round;stroke:rgb(0%,0%,0%);stroke-opacity:1;stroke-miterlimit:10;" d="M 320 752 L 314.78125 757.214844 L 312.695312 753.046875 Z M 320 752 " transform="matrix(1,0,0,-1,-63,776)"/>
<g style="fill:rgb(0%,0%,0%);fill-opacity:1;">
  <use xlink:href="#glyph1-1" x="311.8895" y="8"/>
  <use xlink:href="#glyph1-2" x="317.119865" y="8"/>
  <use xlink:href="#glyph1-3" x="322.35023" y="8"/>
  <use xlink:href="#glyph1-3" x="327.580595" y="8"/>
  <use xlink:href="#glyph1-4" x="332.81096" y="8"/>
  <use xlink:href="#glyph1-5" x="338.041325" y="8"/>
  <use xlink:href="#glyph1-4" x="343.27169" y="8"/>
  <use xlink:href="#glyph1-3" x="348.502055" y="8"/>
  <use xlink:href="#glyph1-6" x="353.73242" y="8"/>
  <use xlink:href="#glyph1-4" x="358.962785" y="8"/>
  <use xlink:href="#glyph1-7" x="364.19315" y="8"/>
</g>
<path style="fill:none;stroke-width:0.398;stroke-linecap:butt;stroke-linejoin:miter;stroke:rgb(0%,0%,0%);stroke-opacity:1;stroke-miterlimit:10;" d="M 0.00028125 0.00021875 L 3.137 0.00021875 " transform="matrix(1,0,0,-1,370.0505,7.801)"/>
<g style="fill:rgb(0%,0%,0%);fill-opacity:1;">
  <use xlink:href="#glyph2-2" x="373.1895" y="8"/>
  <use xlink:href="#glyph2-5" x="378.419865" y="8"/>
  <use xlink:href="#glyph2-6" x="383.65023" y="8"/>
  <use xlink:href="#glyph2-7" x="388.880595" y="8"/>
</g>
<path style="fill:none;stroke-width:0.4;stroke-linecap:butt;stroke-linejoin:round;stroke:rgb(0%,0%,0%);stroke-opacity:1;stroke-dasharray:4;stroke-miterlimit:10;" d="M 384 752 C 405.332031 762.667969 426.667969 762.667969 448 752 " transform="matrix(1,0,0,-1,-63,776)"/>
<path style="fill-rule:evenodd;fill:rgb(0%,0%,0%);fill-opacity:1;stroke-width:0.4;stroke-linecap:butt;stroke-linejoin:round;stroke:rgb(0%,0%,0%);stroke-opacity:1;stroke-miterlimit:10;" d="M 448 752 L 442.78125 757.214844 L 440.695312 753.046875 Z M 448 752 " transform="matrix(1,0,0,-1,-63,776)"/>
<g style="fill:rgb(0%,0%,0%);fill-opacity:1;">
  <use xlink:href="#glyph3-1" x="271.261" y="40"/>
  <use xlink:href="#glyph3-2" x="279.559846" y="40"/>
  <use xlink:href="#glyph3-3" x="283.455222" y="40"/>
  <use xlink:href="#glyph3-4" x="287.878617" y="40"/>
  <use xlink:href="#glyph3-5" x="292.859917" y="40"/>
  <use xlink:href="#glyph3-3" x="298.38916" y="40"/>
  <use xlink:href="#glyph3-2" x="302.812554" y="40"/>
</g>
<g style="fill:rgb(0%,0%,0%);fill-opacity:1;">
  <use xlink:href="#glyph3-6" x="397.296" y="40"/>
  <use xlink:href="#glyph3-2" x="405.594846" y="40"/>
  <use xlink:href="#glyph3-3" x="409.490222" y="40"/>
  <use xlink:href="#glyph3-4" x="413.913617" y="40"/>
  <use xlink:href="#glyph3-5" x="418.894917" y="40"/>
  <use xlink:href="#glyph3-3" x="424.42416" y="40"/>
  <use xlink:href="#glyph3-2" x="428.847554" y="40"/>
  <use xlink:href="#glyph3-7" x="432.742931" y="40"/>
</g>
<path style=" stroke:none;fill-rule:evenodd;fill:rgb(0%,0%,0%);fill-opacity:1;" d="M 466.800781 40 C 466.800781 37.601562 463.199219 37.601562 463.199219 40 C 463.199219 42.398438 466.800781 42.398438 466.800781 40 Z M 466.800781 40 "/>
<path style=" stroke:none;fill-rule:evenodd;fill:rgb(0%,0%,0%);fill-opacity:1;" d="M 482.800781 40 C 482.800781 37.601562 479.199219 37.601562 479.199219 40 C 479.199219 42.398438 482.800781 42.398438 482.800781 40 Z M 482.800781 40 "/>
<path style=" stroke:none;fill-rule:evenodd;fill:rgb(0%,0%,0%);fill-opacity:1;" d="M 498.800781 40 C 498.800781 37.601562 495.199219 37.601562 495.199219 40 C 495.199219 42.398438 498.800781 42.398438 498.800781 40 Z M 498.800781 40 "/>
</g>
</svg>
